<mxfile host="Electron" modified="2023-12-11T22:49:33.066Z" agent="Mozilla/5.0 (Windows NT 10.0; Win64; x64) AppleWebKit/537.36 (KHTML, like Gecko) draw.io/22.1.2 Chrome/114.0.5735.289 Electron/25.9.4 Safari/537.36" etag="EQfRK39ht_DJXIhNsJ3z" version="22.1.2" type="device">
  <diagram name="Page-1" id="tnl13-mu_6jpClqBQCL0">
    <mxGraphModel dx="1295" dy="758" grid="1" gridSize="10" guides="1" tooltips="1" connect="1" arrows="1" fold="1" page="1" pageScale="1" pageWidth="827" pageHeight="1169" math="0" shadow="0">
      <root>
        <mxCell id="0" />
        <mxCell id="1" parent="0" />
        <mxCell id="ANfnTpbjn4AxKtJ8D0YX-15" style="edgeStyle=orthogonalEdgeStyle;rounded=0;orthogonalLoop=1;jettySize=auto;html=1;exitX=1;exitY=0.25;exitDx=0;exitDy=0;entryX=0;entryY=0.25;entryDx=0;entryDy=0;" edge="1" parent="1" source="ANfnTpbjn4AxKtJ8D0YX-1">
          <mxGeometry relative="1" as="geometry">
            <mxPoint x="690" y="265.0000000000001" as="targetPoint" />
          </mxGeometry>
        </mxCell>
        <mxCell id="ANfnTpbjn4AxKtJ8D0YX-1" value="" style="whiteSpace=wrap;html=1;aspect=fixed;" vertex="1" parent="1">
          <mxGeometry x="60" y="140" width="500" height="500" as="geometry" />
        </mxCell>
        <mxCell id="ANfnTpbjn4AxKtJ8D0YX-2" value="FRONT END" style="text;html=1;strokeColor=none;fillColor=none;align=center;verticalAlign=middle;whiteSpace=wrap;rounded=0;" vertex="1" parent="1">
          <mxGeometry x="270" y="170" width="80" height="30" as="geometry" />
        </mxCell>
        <mxCell id="ANfnTpbjn4AxKtJ8D0YX-3" value="Sign in page" style="whiteSpace=wrap;html=1;aspect=fixed;" vertex="1" parent="1">
          <mxGeometry x="90" y="230" width="80" height="80" as="geometry" />
        </mxCell>
        <mxCell id="ANfnTpbjn4AxKtJ8D0YX-4" value="Sign up page" style="whiteSpace=wrap;html=1;aspect=fixed;" vertex="1" parent="1">
          <mxGeometry x="210" y="230" width="80" height="80" as="geometry" />
        </mxCell>
        <mxCell id="ANfnTpbjn4AxKtJ8D0YX-5" value="Home page" style="whiteSpace=wrap;html=1;aspect=fixed;" vertex="1" parent="1">
          <mxGeometry x="320" y="230" width="80" height="80" as="geometry" />
        </mxCell>
        <mxCell id="ANfnTpbjn4AxKtJ8D0YX-6" value="404 page" style="whiteSpace=wrap;html=1;aspect=fixed;" vertex="1" parent="1">
          <mxGeometry x="430" y="230" width="80" height="80" as="geometry" />
        </mxCell>
        <mxCell id="ANfnTpbjn4AxKtJ8D0YX-7" value="Voting overview page" style="whiteSpace=wrap;html=1;aspect=fixed;" vertex="1" parent="1">
          <mxGeometry x="90" y="330" width="80" height="80" as="geometry" />
        </mxCell>
        <mxCell id="ANfnTpbjn4AxKtJ8D0YX-8" value="Voting page" style="whiteSpace=wrap;html=1;aspect=fixed;" vertex="1" parent="1">
          <mxGeometry x="210" y="330" width="80" height="80" as="geometry" />
        </mxCell>
        <mxCell id="ANfnTpbjn4AxKtJ8D0YX-9" value="Voting constructor page" style="whiteSpace=wrap;html=1;aspect=fixed;" vertex="1" parent="1">
          <mxGeometry x="320" y="330" width="80" height="80" as="geometry" />
        </mxCell>
        <mxCell id="ANfnTpbjn4AxKtJ8D0YX-10" value="HTML, CSS,Java Script" style="text;html=1;strokeColor=none;fillColor=none;align=center;verticalAlign=middle;whiteSpace=wrap;rounded=0;" vertex="1" parent="1">
          <mxGeometry x="90" y="585" width="140" height="30" as="geometry" />
        </mxCell>
        <mxCell id="ANfnTpbjn4AxKtJ8D0YX-16" style="edgeStyle=orthogonalEdgeStyle;rounded=0;orthogonalLoop=1;jettySize=auto;html=1;exitX=0;exitY=0.75;exitDx=0;exitDy=0;entryX=1;entryY=0.75;entryDx=0;entryDy=0;" edge="1" parent="1" target="ANfnTpbjn4AxKtJ8D0YX-1">
          <mxGeometry relative="1" as="geometry">
            <mxPoint x="690" y="515" as="sourcePoint" />
          </mxGeometry>
        </mxCell>
        <mxCell id="ANfnTpbjn4AxKtJ8D0YX-22" value="" style="whiteSpace=wrap;html=1;aspect=fixed;" vertex="1" parent="1">
          <mxGeometry x="690" y="130" width="500" height="500" as="geometry" />
        </mxCell>
        <mxCell id="ANfnTpbjn4AxKtJ8D0YX-23" value="DATABASE" style="text;html=1;strokeColor=none;fillColor=none;align=center;verticalAlign=middle;whiteSpace=wrap;rounded=0;" vertex="1" parent="1">
          <mxGeometry x="905" y="160" width="70" height="30" as="geometry" />
        </mxCell>
        <mxCell id="ANfnTpbjn4AxKtJ8D0YX-26" value="User: id, name, password" style="rounded=0;whiteSpace=wrap;html=1;" vertex="1" parent="1">
          <mxGeometry x="720" y="230" width="120" height="60" as="geometry" />
        </mxCell>
        <mxCell id="ANfnTpbjn4AxKtJ8D0YX-27" value="Voting: id, name, options(options votes), people who voted, creator&#39;s id" style="rounded=0;whiteSpace=wrap;html=1;" vertex="1" parent="1">
          <mxGeometry x="880" y="230" width="120" height="60" as="geometry" />
        </mxCell>
        <mxCell id="ANfnTpbjn4AxKtJ8D0YX-28" value="Node js, express, firebase" style="text;html=1;strokeColor=none;fillColor=none;align=center;verticalAlign=middle;whiteSpace=wrap;rounded=0;" vertex="1" parent="1">
          <mxGeometry x="720" y="570" width="160" height="30" as="geometry" />
        </mxCell>
      </root>
    </mxGraphModel>
  </diagram>
</mxfile>
